<svg width="75" height="21" viewBox="0 0 75 21" fill="none" xmlns="http://www.w3.org/2000/svg">
<rect width="75" height="21" rx="10" fill="white"/>
<path d="M69.7071 10.7071C70.0976 10.3166 70.0976 9.68342 69.7071 9.29289L63.3431 2.92893C62.9526 2.53841 62.3195 2.53841 61.9289 2.92893C61.5384 3.31946 61.5384 3.95262 61.9289 4.34315L67.5858 10L61.9289 15.6569C61.5384 16.0474 61.5384 16.6805 61.9289 17.0711C62.3195 17.4616 62.9526 17.4616 63.3431 17.0711L69.7071 10.7071ZM53 11L69 11L69 9L53 9L53 11Z" fill="black"/>
<path d="M11.72 14.084C11.136 14.084 10.608 13.984 10.136 13.784C9.672 13.584 9.304 13.296 9.032 12.92C8.76 12.544 8.62 12.1 8.612 11.588H10.412C10.436 11.932 10.556 12.204 10.772 12.404C10.996 12.604 11.3 12.704 11.684 12.704C12.076 12.704 12.384 12.612 12.608 12.428C12.832 12.236 12.944 11.988 12.944 11.684C12.944 11.436 12.868 11.232 12.716 11.072C12.564 10.912 12.372 10.788 12.14 10.7C11.916 10.604 11.604 10.5 11.204 10.388C10.66 10.228 10.216 10.072 9.872 9.92C9.536 9.76 9.244 9.524 8.996 9.212C8.756 8.892 8.636 8.468 8.636 7.94C8.636 7.444 8.76 7.012 9.008 6.644C9.256 6.276 9.604 5.996 10.052 5.804C10.5 5.604 11.012 5.504 11.588 5.504C12.452 5.504 13.152 5.716 13.688 6.14C14.232 6.556 14.532 7.14 14.588 7.892H12.74C12.724 7.604 12.6 7.368 12.368 7.184C12.144 6.992 11.844 6.896 11.468 6.896C11.14 6.896 10.876 6.98 10.676 7.148C10.484 7.316 10.388 7.56 10.388 7.88C10.388 8.104 10.46 8.292 10.604 8.444C10.756 8.588 10.94 8.708 11.156 8.804C11.38 8.892 11.692 8.996 12.092 9.116C12.636 9.276 13.08 9.436 13.424 9.596C13.768 9.756 14.064 9.996 14.312 10.316C14.56 10.636 14.684 11.056 14.684 11.576C14.684 12.024 14.568 12.44 14.336 12.824C14.104 13.208 13.764 13.516 13.316 13.748C12.868 13.972 12.336 14.084 11.72 14.084ZM16.9925 6.56C16.6965 6.56 16.4485 6.468 16.2485 6.284C16.0565 6.092 15.9605 5.856 15.9605 5.576C15.9605 5.296 16.0565 5.064 16.2485 4.88C16.4485 4.688 16.6965 4.592 16.9925 4.592C17.2885 4.592 17.5325 4.688 17.7245 4.88C17.9245 5.064 18.0245 5.296 18.0245 5.576C18.0245 5.856 17.9245 6.092 17.7245 6.284C17.5325 6.468 17.2885 6.56 16.9925 6.56ZM17.8205 7.352V14H16.1405V7.352H17.8205ZM22.0843 7.244C22.5803 7.244 23.0163 7.344 23.3923 7.544C23.7683 7.736 24.0643 7.988 24.2803 8.3V7.352H25.9723V14.048C25.9723 14.664 25.8483 15.212 25.6003 15.692C25.3523 16.18 24.9803 16.564 24.4843 16.844C23.9883 17.132 23.3883 17.276 22.6843 17.276C21.7403 17.276 20.9643 17.056 20.3563 16.616C19.7563 16.176 19.4163 15.576 19.3363 14.816H21.0043C21.0923 15.12 21.2803 15.36 21.5683 15.536C21.8643 15.72 22.2203 15.812 22.6363 15.812C23.1243 15.812 23.5203 15.664 23.8243 15.368C24.1283 15.08 24.2803 14.64 24.2803 14.048V13.016C24.0643 13.328 23.7643 13.588 23.3803 13.796C23.0043 14.004 22.5723 14.108 22.0843 14.108C21.5243 14.108 21.0123 13.964 20.5483 13.676C20.0843 13.388 19.7163 12.984 19.4443 12.464C19.1803 11.936 19.0483 11.332 19.0483 10.652C19.0483 9.98 19.1803 9.384 19.4443 8.864C19.7163 8.344 20.0803 7.944 20.5363 7.664C21.0003 7.384 21.5163 7.244 22.0843 7.244ZM24.2803 10.676C24.2803 10.268 24.2003 9.92 24.0403 9.632C23.8803 9.336 23.6643 9.112 23.3923 8.96C23.1203 8.8 22.8283 8.72 22.5163 8.72C22.2043 8.72 21.9163 8.796 21.6523 8.948C21.3883 9.1 21.1723 9.324 21.0043 9.62C20.8443 9.908 20.7643 10.252 20.7643 10.652C20.7643 11.052 20.8443 11.404 21.0043 11.708C21.1723 12.004 21.3883 12.232 21.6523 12.392C21.9243 12.552 22.2123 12.632 22.5163 12.632C22.8283 12.632 23.1203 12.556 23.3923 12.404C23.6643 12.244 23.8803 12.02 24.0403 11.732C24.2003 11.436 24.2803 11.084 24.2803 10.676ZM31.2972 7.256C32.0892 7.256 32.7292 7.508 33.2172 8.012C33.7052 8.508 33.9492 9.204 33.9492 10.1V14H32.2692V10.328C32.2692 9.8 32.1372 9.396 31.8732 9.116C31.6092 8.828 31.2492 8.684 30.7932 8.684C30.3292 8.684 29.9612 8.828 29.6892 9.116C29.4252 9.396 29.2932 9.8 29.2932 10.328V14H27.6132V7.352H29.2932V8.18C29.5172 7.892 29.8012 7.668 30.1452 7.508C30.4972 7.34 30.8812 7.256 31.2972 7.256ZM40.0861 5.624V14H38.4061V5.624H40.0861ZM45.43 7.256C46.222 7.256 46.862 7.508 47.35 8.012C47.838 8.508 48.082 9.204 48.082 10.1V14H46.402V10.328C46.402 9.8 46.27 9.396 46.006 9.116C45.742 8.828 45.382 8.684 44.926 8.684C44.462 8.684 44.094 8.828 43.822 9.116C43.558 9.396 43.426 9.8 43.426 10.328V14H41.746V7.352H43.426V8.18C43.65 7.892 43.934 7.668 44.278 7.508C44.63 7.34 45.014 7.256 45.43 7.256Z" fill="black"/>
</svg>
